<?xml version="1.0" ?><svg viewBox="0 0 48 48" xmlns="http://www.w3.org/2000/svg" xmlns:xlink="http://www.w3.org/1999/xlink"><defs><style>.cls-1{fill:url(#linear-gradient);}.cls-2{fill:url(#linear-gradient-2);}.cls-3{fill:url(#linear-gradient-3);}.cls-4{fill:url(#linear-gradient-4);}.cls-5{fill:#fff;}</style><linearGradient gradientUnits="userSpaceOnUse" id="linear-gradient" x1="22.6" x2="25.12" y1="13.53" y2="26.17"><stop offset="0" stop-color="#ec232b"/><stop offset="1" stop-color="#c92533"/></linearGradient><linearGradient gradientUnits="userSpaceOnUse" id="linear-gradient-2" x1="26.83" x2="29.69" y1="18.63" y2="26.79"><stop offset="0" stop-color="#ec232b"/><stop offset="1" stop-color="#b20010"/></linearGradient><linearGradient gradientUnits="userSpaceOnUse" id="linear-gradient-3" x1="32.87" x2="32.87" y1="23.53" y2="32.36"><stop offset="0" stop-color="#7db700"/><stop offset="1" stop-color="#618e00"/></linearGradient><linearGradient gradientUnits="userSpaceOnUse" id="linear-gradient-4" x1="32.87" x2="32.87" y1="24.26" y2="31.93"><stop offset="0" stop-color="#8ed000"/><stop offset="1" stop-color="#70a300"/></linearGradient></defs><title/><g id="icons"><g data-name="Layer 3" id="Layer_3"><path class="cls-1" d="M36,13c2.3,2.56,2.82,4.7,2.07,8.08-1.74,7.8-14.47,15.6-14.47,15.6S10.54,29,9.15,21.1c-.57-3.19-.5-5.17,1.69-7.7,2.65-3.08,9-2.45,12.59,1.12C26.81,11.14,33.37,10.07,36,13Z"/><path class="cls-2" d="M31.81,23.33A7.62,7.62,0,0,0,25.6,35.38c2.86-2,8.07-6,10.84-10.47A7.61,7.61,0,0,0,31.81,23.33Z"/><path class="cls-3" d="M40.49,29.07a7.63,7.63,0,1,1-7.62-7.62A7.63,7.63,0,0,1,40.49,29.07Z"/><path class="cls-4" d="M32.87,35.7a6.63,6.63,0,1,1,6.62-6.63,6.63,6.63,0,0,1-6.62,6.63Z"/><path class="cls-5" d="M31.71,30.23H29.33c0-.21-.06-.41-.09-.59a5,5,0,0,1,0-.56,5.4,5.4,0,0,1,0-.56c0-.19.05-.39.09-.61h2.38V25.33c.21,0,.4-.08.59-.1a5.17,5.17,0,0,1,.57,0l.56,0c.19,0,.39.06.61.1v2.58h2.37q.06.33.09.6a3.52,3.52,0,0,1,0,.56,3.6,3.6,0,0,1,0,.56q0,.29-.09.6H34v2.59l-.61.09a3.31,3.31,0,0,1-.55,0,6.73,6.73,0,0,1-1.17-.13Z"/></g></g></svg>